<?xml version="1.0" standalone="no"?>
<!DOCTYPE svg PUBLIC "-//W3C//DTD SVG 1.1//EN" "http://www.w3.org/Graphics/SVG/1.1/DTD/svg11.dtd" >
<!--
2013-9-30: Created.
-->
<svg>
<metadata>
Created by iconfont
</metadata>
<defs>

<font id="iconfont" horiz-adv-x="1024" >
  <font-face
    font-family="iconfont"
    font-weight="500"
    font-stretch="normal"
    units-per-em="1024"
    ascent="896"
    descent="-128"
  />
    <missing-glyph />
    
    <glyph glyph-name="fanhui" unicode="&#58885;" d="M920.2838 78.0705c-9.42 0-17.6757 6.6355-19.5745 16.0251-0.2668 1.2601-13.3605 61.0206-69.1789 119.7338-71.0877 74.7763-181.0936 115.9104-319.0088 119.511v-162.43786712608852c0-7.5129-4.2123-14.3892-10.9041-17.8029-6.6907-3.4127-14.7326-2.7881-20.8147 1.6219L97.6258 432.4992c-5.1797 3.7545-8.2487 9.7624-8.2557 16.16-0.007 6.3967 3.0491 12.4116 8.2208 16.177L480.7678 743.883c6.0791 4.426 14.128 5.0676 20.8297 1.6569 6.7027-3.4097 10.924-10.293 10.924-17.8129v-172.47905919786385c24.6843-0.9094 67.7468-4.5709 117.668-17.8189 79.4594-21.0877 145.4324-57.8917 196.0901-109.3888 77.9573-79.2513 116.3139-190.3849 114.0044-330.313-0.1679-10.2121-8.0099-18.6544-18.1814-19.5747C921.493 78.0974 920.8844 78.0705 920.2838 78.0705zM492.5343 373.5721c88.5746 0 167.1135-13.9465 233.4333-41.4509 53.7468-22.2899 99.6105-53.4568 136.3142-92.6342 12.0513-12.8633 22.3078-25.7276 31.0252-38.1491-13.3045 81.0081-45.2642 147.5749-95.5261 198.6723-108.1751 109.9704-268.3481 115.5417-299.3573 115.5417-3.3079 0-5.1247-0.065-5.1427-0.065-5.4315-0.1939-10.7042 1.8188-14.6107 5.5852-3.9065 3.7674-6.1231 8.9599-6.1231 14.3862V688.4466331827022L143.3597 448.7172l329.1873-238.6382V353.5856689164747C472.547 364.6232 481.4953 373.5721 492.5343 373.5721z"  horiz-adv-x="1000" />

    
    <glyph glyph-name="31daipingjia" unicode="&#58880;" d="M860.377432 762.785999 163.652244 762.785999c-41.643446 0-75.546603-33.903158-75.546603-75.546603l0-510.917342c0-41.643446 33.903158-75.546603 75.546603-75.546603l252.743328 0 95.618754-95.559403 95.589079 95.559403 252.774027 0c41.643446 0 75.516928 33.903158 75.516928 75.546603L935.89436 687.238372C935.89436 728.882841 902.020878 762.785999 860.377432 762.785999zM877.749078 664.016485l0-464.473567c0-22.381753-18.21178-40.593534-40.593534-40.593534L579.520813 158.949384l-67.506487-67.565838-67.536162 67.565838L186.874131 158.949384c-22.412452 0-40.624233 18.21178-40.624233 40.593534L146.249899 664.016485c0 22.412452 18.21178 40.624233 40.624233 40.624233l650.28039 0C859.537298 704.639694 877.749078 686.428937 877.749078 664.016485zM302.83519 492.250446 741.266637 492.250446c14.851243 0 26.972305 12.481266 26.972305 27.812439 0 15.361873-12.121062 27.872814-26.972305 27.872814L302.83519 547.9357c-14.851243 0-26.942629-12.510942-26.942629-27.872814C275.892561 504.731712 287.983947 492.250446 302.83519 492.250446zM741.266637 399.421224 302.83519 399.421224c-14.851243 0-26.942629-12.510942-26.942629-27.842115 0-15.331173 12.091386-27.842115 26.942629-27.842115L741.266637 343.736994c14.851243 0 26.972305 12.510942 26.972305 27.842115C768.238942 386.910283 756.11788 399.421224 741.266637 399.421224z"  horiz-adv-x="1024" />

    
    <glyph glyph-name="gouwuche" unicode="&#58897;" d="M352.53359 66.077184c-35.238572 0-63.782675-28.54615-63.782675-63.786769 0-35.237549 28.545126-63.781652 63.782675-63.781652 35.240619 0 63.781652 28.545126 63.781652 63.781652C416.315242 37.532057 387.775232 66.077184 352.53359 66.077184L352.53359 66.077184 352.53359 66.077184zM799.016411 66.077184c-35.240619 0-63.787792-28.54615-63.787792-63.786769 0-35.237549 28.54615-63.781652 63.787792-63.781652 35.235502 0 63.781652 28.545126 63.781652 63.781652C862.798063 37.532057 834.251913 66.077184 799.016411 66.077184L799.016411 66.077184 799.016411 66.077184zM862.28641 97.965451 344.276533 97.965451c-45.957705 0-86.36295 36.354999-91.976808 82.759889l-54.087872 380.784516L167.436942 739.464851c-1.913583 15.526625-16.074094 28.223808-29.913287 28.223808l-40.627303 0c-17.607006 0-31.894408 14.287401-31.894408 31.887244 0 17.605983 14.287401 31.894408 31.894408 31.894408l40.627303 0c46.530756 0 87.383186-36.356023 93.028766-82.760912l30.710442-177.281659 54.313-382.409526c1.784646-14.799054 15.176654-27.270087 28.700669-27.270087l518.010901 0c17.635659 0 31.893384-14.253632 31.893384-31.888268C894.179794 112.223177 879.923092 97.965451 862.28641 97.965451L862.28641 97.965451zM384.140449 225.533872c-16.549931 0-30.550807 12.754488-31.766494 29.562293-1.304715 17.572214 11.895935 32.848129 29.435403 34.122145l432.643628 31.895431c15.878642 0.092098 29.27372 12.564154 31.026644 26.754341l50.228985 287.404756c1.27504 10.715039-1.687432 22.452361-8.096399 29.722952-4.116761 4.656043-9.28548 7.016811-15.309684 7.016811L320.133669 672.012599c-17.605983 0-31.893384 14.287401-31.893384 31.894408 0 17.599843 14.287401 31.887244 31.893384 31.887244l552.167838 0c24.364921 0 46.749744-10.107195 63.046918-28.511357 18.627243-21.017686 27.172873-50.6424 23.440875-81.352843l-50.258661-287.439548c-5.421476-44.712341-45.797046-81.068364-91.753727-81.068364l-430.278767-31.795147C385.702014 225.563548 384.903835 225.533872 384.140449 225.533872L384.140449 225.533872zM384.140449 225.533872"  horiz-adv-x="1024" />

    
    <glyph glyph-name="bangdingyouxiang" unicode="&#58886;" d="M884.10259 686.791429 139.601663 686.791429c-41.237736 0-74.79936-33.562648-74.79936-74.881228l0-456.519348c0-41.344164 33.562648-74.823921 74.79936-74.823921l744.500927 0c41.406588 0 74.79936 33.479757 74.79936 74.823921L958.901951 611.909178C958.896834 653.228782 925.509178 686.791429 884.10259 686.791429L884.10259 686.791429 884.10259 686.791429zM866.199169 633.174288 569.308347 369.923889c-25.913144-23.115318-45.101887-34.595203-57.456732-34.595203-12.353822 0-31.547681 11.479885-57.460825 34.595203L157.499968 633.174288 866.199169 633.174288 866.199169 633.174288 866.199169 633.174288zM120.438503 172.062168 120.438503 584.535721l231.873617-203.376527L120.438503 172.062168 120.438503 172.062168 120.438503 172.062168zM159.432043 134.182028l232.739367 206.690118 38.12779-33.47464c22.160537-19.357595 49.451103-29.304509 81.552414-29.304509 32.26914 0 59.387784 9.945891 81.632235 29.304509l38.12165 33.47464 232.748577-206.690118L159.432043 134.182028 159.432043 134.182028 159.432043 134.182028zM903.29031 172.062168 671.42181 381.160217l231.8685 203.376527L903.29031 172.062168 903.29031 172.062168 903.29031 172.062168zM903.29031 172.062168"  horiz-adv-x="1024" />

    
    <glyph glyph-name="saoyisaojianjiban" unicode="&#58937;" d="M313.6-44.8 147.2-44.8c-38.4 0-64 32-64 64l0 166.4c0 12.8-12.8 25.6-25.6 25.6s-25.6-12.8-25.6-25.6l0-166.4c0-64 51.2-115.2 115.2-115.2l166.4 0c12.8 0 25.6 12.8 25.6 25.6C339.2-57.6 326.4-44.8 313.6-44.8zM966.4 211.2c-12.8 0-25.6-12.8-25.6-25.6l0-166.4c0-38.4-32-64-64-64l-166.4 0c-12.8 0-25.6-12.8-25.6-25.6 0-12.8 12.8-25.6 25.6-25.6l166.4 0c64 0 115.2 51.2 115.2 115.2l0 166.4C992 198.4 979.2 211.2 966.4 211.2zM876.8 864l-166.4 0c-12.8 0-25.6-12.8-25.6-25.6s12.8-25.6 25.6-25.6l166.4 0c38.4 0 64-32 64-64l0-166.4c0-12.8 12.8-25.6 25.6-25.6 12.8 0 25.6 12.8 25.6 25.6L992 748.8C992 812.8 940.8 864 876.8 864zM57.6 556.8c12.8 0 25.6 12.8 25.6 25.6L83.2 748.8c0 38.4 32 64 64 64l166.4 0c12.8 0 25.6 12.8 25.6 25.6S326.4 864 313.6 864L147.2 864c-64 0-115.2-51.2-115.2-115.2l0-166.4C32 569.6 44.8 556.8 57.6 556.8zM966.4 409.6 57.6 409.6C44.8 409.6 32 396.8 32 384s12.8-25.6 25.6-25.6l908.8 0c12.8 0 25.6 12.8 25.6 25.6S979.2 409.6 966.4 409.6z"  horiz-adv-x="1024" />

    
    <glyph glyph-name="yijianfankui" unicode="&#58978;" d="M873.6 620.8c-16 0-25.6-12.8-25.6-25.6l0-550.4c0-28.8-22.4-51.2-51.2-51.2l-643.2 0c-28.8 0-51.2 22.4-51.2 51.2l0 646.4c0 28.8 22.4 51.2 51.2 51.2l521.6 0c16 0 25.6 12.8 25.6 25.6 0 12.8-12.8 25.6-25.6 25.6l-521.6 0c-57.6 0-105.6-48-105.6-102.4l0-646.4c0-57.6 48-102.4 105.6-102.4l643.2 0c57.6 0 105.6 44.8 105.6 102.4l0 550.4C899.2 611.2 889.6 620.8 873.6 620.8zM483.2 534.4l-278.4 0c-16 0-25.6-12.8-25.6-25.6 0-12.8 12.8-25.6 25.6-25.6l278.4 0c16 0 25.6 12.8 25.6 25.6C508.8 524.8 496 534.4 483.2 534.4zM179.2 329.6c0-12.8 12.8-25.6 25.6-25.6l460.8 0c16 0 25.6 12.8 25.6 25.6 0 12.8-12.8 25.6-25.6 25.6l-460.8 0C192 355.2 179.2 342.4 179.2 329.6zM969.6 838.4c-9.6 9.6-25.6 9.6-38.4 0l-326.4-323.2c-9.6-9.6-9.6-25.6 0-35.2s25.6-9.6 38.4 0l326.4 323.2C979.2 812.8 979.2 828.8 969.6 838.4z"  horiz-adv-x="1024" />

    
    <glyph glyph-name="wodedefault" unicode="&#58980;" d="M333.650009 597.58447c0 98.635461 79.843466 178.583305 178.349991 178.583305 98.511641 0 178.353061-79.947843 178.353061-178.583305 0-98.627275-79.842443-178.570002-178.353061-178.570002C413.493475 419.014468 333.650009 498.957195 333.650009 597.58447L333.650009 597.58447 333.650009 597.58447 333.650009 597.58447zM488.249063 354.32719C294.160623 342.007607 140.433426 180.935118 140.433426-16.50772l354.897939 0-57.644885 315.478138L488.249063 354.32719zM883.566574-16.50772c0 197.440791-153.73129 358.514303-347.815637 370.83491l50.562583-55.356772-57.639768-315.478138L883.566574-16.50772z"  horiz-adv-x="1024" />

    
    <glyph glyph-name="shimingrenzheng-copy" unicode="&#58882;" d="M670.548 445.174h224.446v-38.837h-224.446v38.837zM738.858 159.718l-1.96 1.942h-441.062c-17.561 0-31.228 13.597-31.228 31.068v407.792c0 17.472 13.659 33.010 31.228 33.010h628.425c17.571 0 31.228-13.597 31.228-31.077v-244.666l1.951-1.942c9.757-5.828 19.512-13.597 27.326-23.298l7.805-9.711v287.395c0 33.010-27.326 60.193-60.498 60.193h-646.004c-33.171 0-60.498-27.184-60.498-60.193v-427.206c0-33.010 27.326-60.192 60.498-60.192h478.153l-5.854 7.769c-7.805 9.703-13.659 19.414-19.511 29.116v0zM670.548 359.731h66.352v-38.837h-66.352v38.837zM670.548 528.674h224.446v-38.837h-224.446v38.837zM875.472 353.902c-72.204 0-128.809-56.307-128.809-128.164 0-69.905 58.554-128.164 128.809-128.164 72.213 0.007 128.809 56.327 128.809 128.173 0 71.846-58.554 128.155-128.809 128.155v0zM873.522 148.073c-5.854-5.827-17.561-5.827-25.366 0l-54.643 54.366c-5.854 5.828-5.854 17.472 0 23.298s17.561 5.828 25.366 0l42.936-42.721 83.92 81.558c5.854 5.828 17.561 5.828 25.366 0 5.854-5.828 5.854-17.482 0-23.307l-97.58-93.194zM540.718 400.303c21.158 18.949 34.488 46.481 34.488 77.118 0.007 57.157-46.329 103.496-103.487 103.496s-103.496-46.338-103.496-103.496c0-30.647 13.319-58.178 34.488-77.118-56.988-26.172-96.577-83.735-96.577-150.559h41.396c0 68.589 55.6 124.191 124.191 124.191s124.191-55.6 124.191-124.191h41.396c0 66.825-39.589 124.388-96.587 150.559zM471.717 539.523c34.299 0 62.1-27.801 62.1-62.1s-27.801-62.090-62.1-62.090-62.1 27.801-62.1 62.1 27.801 62.090 62.1 62.090z"  horiz-adv-x="1392" />

    
    <glyph glyph-name="hj3" unicode="&#59028;" d="M508.491 551.496c-79.695 0-144.466-65.66-144.466-146.431 0-80.77 64.83-146.489 144.466-146.489 7.973 0 16.176 0.831 25.814 2.619 11.241 2.078 18.673 12.964 16.654 24.325-2.082 11.417-12.787 19.030-24.031 16.89-7.133-1.307-13.023-1.901-18.437-1.901-56.857 0-103.132 46.924-103.132 104.556 0 57.634 46.275 104.558 103.132 104.558 56.921 0 103.133-46.924 103.133-104.558 0-5.531-0.595-11.422-1.902-18.677-2.082-11.358 5.408-22.302 16.594-24.385 11.241-2.078 22.004 5.473 24.028 16.834 1.724 9.751 2.559 18.079 2.559 26.17 0.059 80.829-64.771 146.487-144.412 146.487v0zM934.636 487.501c-1.542 8.145-7.673 14.629-15.642 16.531-45.322 10.586-82.967 38.72-106.045 79.223-23.078 40.503-28.251 87.549-14.688 132.573 2.378 7.909-0.064 16.534-6.247 21.95-41.574 36.397-88.975 64.172-141.018 82.549-7.731 2.735-16.294 0.599-21.885-5.468-31.7-34.5-74.526-53.412-120.62-53.412-46.093 0-88.916 18.975-120.557 53.353-5.589 6.062-14.217 8.205-21.949 5.468-51.979-18.318-99.443-46.093-141.018-82.549-6.185-5.413-8.622-14.039-6.243-21.95 13.559-44.963 8.326-92.069-14.692-132.513-23.075-40.562-60.724-68.697-106.045-79.223-7.969-1.842-14.154-8.326-15.642-16.531-5.232-27.838-7.851-55.613-7.851-82.436 0-26.821 2.619-54.597 7.851-82.434 1.548-8.145 7.673-14.629 15.642-16.473 45.322-10.586 82.971-38.72 106.045-79.223 23.020-40.503 28.251-87.549 14.692-132.573-2.378-7.909 0.059-16.535 6.243-21.95 41.574-36.397 88.979-64.171 141.018-82.549 2.201-0.777 4.524-1.189 6.784-1.189 5.649 0 11.121 2.319 15.105 6.661 31.7 34.372 74.523 53.348 120.615 53.348 46.094 0 88.921-18.913 120.562-53.348 5.589-6.067 14.153-8.209 21.884-5.532 51.983 18.318 99.385 46.094 141.018 82.549 6.185 5.414 8.626 14.039 6.243 21.95-13.559 44.963-8.326 92.069 14.752 132.573 23.078 40.503 60.724 68.637 106.045 79.223 7.969 1.842 14.099 8.326 15.642 16.473 5.237 27.898 7.851 55.674 7.851 82.436 0.001 26.823-2.613 54.598-7.851 82.495v0zM896.275 343.272c-50.078-15.347-92.959-49.547-119.133-95.459-26.111-45.857-33.902-100.578-22.062-152.143-31.882-26.111-67.33-46.866-105.632-61.794-38.361 36.698-87.904 56.681-140.958 56.681-52.22 0-102.832-20.519-140.958-56.679-38.303 14.93-73.751 35.684-105.569 61.794 12.133 52.042 4.461 105.573-22.066 152.143-26.227 45.913-69.109 80.113-119.191 95.459-3.271 20.933-4.937 41.633-4.937 61.735 0 20.101 1.666 40.86 4.937 61.793 50.019 15.347 92.905 49.547 119.072 95.459 26.111 45.857 33.902 100.578 22.066 152.143 31.878 26.17 67.267 46.866 105.628 61.854 38.125-36.22 88.797-56.74 141.017-56.74 53.055 0 102.597 20.043 141.018 56.679 38.365-14.929 73.809-35.684 105.632-61.794-11.84-51.565-4.108-106.285 22.003-152.143 26.173-45.913 69.054-80.113 119.133-95.459 3.271-20.995 4.937-41.692 4.937-61.793 0-20.043-1.666-40.745-4.937-61.735v0zM896.275 343.272z"  horiz-adv-x="1024" />

    
    <glyph glyph-name="wode" unicode="&#58909;" d="M489.68008894 824.90523648c111.3758591 0 201.99768064-91.98885395 201.99768064-205.05486222s-90.62182154-205.05486222-201.99768064-205.05486223-201.99768064 91.98885395-201.99768064 205.05486223S378.30422983 824.90523648 489.68008894 824.90523648L489.68008894 824.90523648zM596.01035568 275.9795841c148.75798187 0 269.77763328-122.73465571 269.80248841-273.60532405l0-19.61070136c0-5.69182587-1.01906053-7.33226477-4.82189615-10.33973609-4.92131669-3.90225616-17.62229058-11.33394147-47.29932156-17.2743187-54.23390416-10.83683877-133.62120477-10.83683877-217.65641557-10.83683878l-193.34809372 0c-85.84963565 0-166.90223028 0-220.16678419 10.81198365-28.53369477 5.79124641-40.46415948 12.94952524-45.06235943 16.72750574-2.98261618 2.43580321-4.52363454 4.02653184-4.52363454 10.91140418l0 19.61070136c0 150.87066832 121.01965141 273.60532404 269.75277816 273.60532405L596.01035568 275.9795841 596.01035568 275.9795841zM489.68008894 881.72407467c-142.29564682 0-258.07086478-117.49022227-258.07086478-261.84884528 0-144.35862301 115.77521797-261.84884528 258.07086478-261.84884527 142.29564682 0 258.07086478 117.46536714 258.07086478 261.84884527C747.75095372 764.25870753 631.97573575 881.72407467 489.68008894 881.72407467L489.68008894 881.72407467M596.01035568 332.77356714999996l-193.34809373 0c-179.70262471 0-325.85081742-148.21116891-325.85081742-330.3993071l0-19.61070136c0-95.26973174 143.81181004-95.26973174 325.85081742-95.26973176l193.34809373 0c174.88072855 0 325.87567255 0 325.87567255 95.26973176l0 19.61070136C921.88602823 184.53754311 775.71298038 332.77356714999996 596.01035568 332.77356714999996L596.01035568 332.77356714999996"  horiz-adv-x="1024" />

    
    <glyph glyph-name="iconfontzhizuobiaozhun17" unicode="&#58896;" d="M512.723989 831.378214c-247.411903 0-447.923636-178.424692-447.923636-398.584927 0-129.326461 63.071478-244.25091 170.281221-317.079612 0.63445-0.412392 0-179.090864 0-179.090864l169.003112 108.37222c33.051767-6.92983 70.327742-10.806113 105.743346-10.806113 247.399623 0 449.369567 178.415482 449.369567 398.603347C959.198623 652.952498 760.132822 831.378214 512.723989 831.378214L512.723989 831.378214 512.723989 831.378214zM512.723989 84.024951c-39.853683 0-84.650959 5.387707-120.933303 14.944364l-111.711268-69.563332 0 112.692618c0 4.279467-8.16496 8.631588-15.115256 13.255908-95.307669 63.71616-153.60133 164.271344-153.60133 277.4398 0 192.643532 179.870624 348.770382 399.764799 348.770382s398.954341-156.12685 398.954341-348.770382C910.081972 240.152824 732.618165 84.024951 512.723989 84.024951L512.723989 84.024951 512.723989 84.024951zM512.723989 84.024951M715.939297 558.629249l-398.119323 0c-13.751189 0-24.907273-11.779278-24.907273-25.574469 0-13.729699 11.155061-25.507954 24.907273-25.507954l398.119323 0c13.753235 0 24.90625 11.778254 24.90625 25.507954C740.845547 546.850995 729.692532 558.629249 715.939297 558.629249L715.939297 558.629249 715.939297 558.629249zM715.939297 558.629249M679.962921 361.515916c0 11.821233-9.664104 21.442358-21.506826 21.442358l-304.956503 0c-11.819187 0-21.399379-9.621125-21.399379-21.442358l0-6.770194c0-11.821233 9.580193-21.864984 21.399379-21.864984l304.956503 0c11.841699 0 21.506826 10.04375 21.506826 21.864984L679.962921 361.515916 679.962921 361.515916 679.962921 361.515916 679.962921 361.515916zM679.962921 361.515916"  horiz-adv-x="1024" />

    
    <glyph glyph-name="daiqueren" unicode="&#59045;" d="M384 0 160 0c-52.9 0-96 43.1-96 96L64 736c0 52.9 43.1 96 96 96l512 0c52.9 0 96-43.1 96-96l0-192c0-17.7-14.3-32-32-32s-32 14.3-32 32L704 736c0 17.6-14.4 32-32 32L160 768c-17.6 0-32-14.4-32-32l0-640c0-17.6 14.4-32 32-32l224 0c17.7 0 32-14.3 32-32S401.7 0 384 0zM688-64c-72.7 0-141 28.3-192.3 79.7C444.3 67 416 135.3 416 208s28.3 141 79.7 192.3C547 451.7 615.3 480 688 480s141-28.3 192.3-79.7C931.7 348.9 960 280.6 960 208s-28.3-141-79.7-192.3S760.7-64 688-64zM688 416c-114.7 0-208-93.3-208-208s93.3-208 208-208 208 93.3 208 208S802.7 416 688 416zM800 128 672 128c-17.7 0-32 14.3-32 32L640 320c0 17.7 14.3 32 32 32s32-14.3 32-32l0-128 96 0c17.7 0 32-14.3 32-32S817.7 128 800 128zM608 576 224 576c-17.7 0-32 14.3-32 32s14.3 32 32 32l384 0c17.7 0 32-14.3 32-32S625.7 576 608 576zM384 384 224 384c-17.7 0-32 14.3-32 32s14.3 32 32 32l160 0c17.7 0 32-14.3 32-32S401.7 384 384 384zM320 192l-96 0c-17.7 0-32 14.3-32 32s14.3 32 32 32l96 0c17.7 0 32-14.3 32-32S337.7 192 320 192z"  horiz-adv-x="1024" />

    
    <glyph glyph-name="shezhimima" unicode="&#58890;" d="M671.662885 815.033967c-148.985196 0-269.801842-120.791064-269.801842-269.802866 0-149.012825 120.816646-269.803889 269.801842-269.803889 148.987243 0 269.803889 120.791064 269.803889 269.803889C941.466774 694.242903 820.650127 815.033967 671.662885 815.033967zM765.547135 549.205623c-49.623187 0-89.883123 40.258912-89.883123 89.934289 0 49.54644 40.259936 89.805352 89.883123 89.805352 49.597605 0 89.806375-40.258912 89.806375-89.805352C855.35351 589.464535 815.14474 549.205623 765.547135 549.205623zM582.643432 223.925235l0-10.262738c0-14.84408-12.117992-26.946722-26.934442-26.946722l-74.139557 0 0-74.17742c0-14.778588-12.104689-26.883277-26.946722-26.883277l-74.112951 0 0-74.16514c0-14.790868-12.103666-26.946722-26.947745-26.946722l-75.502601 0-18.830881-18.818601c-11.472286-11.485589-126.861316-17.594727-155.763576 11.307533-28.864398 28.837792-22.791076 144.251382-11.267625 155.802462l274.934746 274.870278c9.685593-21.453614 21.775956-41.365106 35.59059-60.182684L165.846724 110.71073c-11.485589-11.550057-11.485589-30.303166 0.025583-41.790802 11.499915-11.486612 30.253024-11.486612 41.764196 0l234.007615 234.059803C480.797859 265.780505 529.095865 238.770338 582.643432 223.925235z"  horiz-adv-x="1024" />

    
    <glyph glyph-name="icon-test" unicode="&#58899;" d="M351.505167 405.692045c-9.836019 0-17.792225-7.27673-17.792224-16.261359v-91.205235h-128.967281c-7.607258 0-13.68365-8.043187-13.68365-17.880229 0-9.931187 6.16235-17.879206 13.68365-17.879206h150.86808c5.048993 0 9.330506 3.76065 11.646248 9.069563 0.261966 0.505513 0.592494 0.940418 0.766456 1.531889 0.173962 0.601704 0.260943 1.289366 0.434905 1.880837 0.330528 1.288343 0.853437 2.489704 0.853438 3.76986V389.344728c0 8.983605-7.956206 16.347317-17.809622 16.347317z m504.531912 352.673271H424.58765c-36.367279 0-65.980737-30.030967-65.980737-66.99074v-191.482079H246.684844c-75.55479 0-138.628314-59.556421-144.094816-134.2414l-0.592494-227.170907c0-36.872792 29.595039-66.903759 65.963341-66.903759h49.040926v-5.727445c0-31.493272 31.301913-56.214303 71.272253-56.214302 39.953967 0 71.273277 24.642237 71.273277 56.214302v5.727445h304.902268v-5.727445c0-31.493272 31.318286-56.214303 71.27123-56.214302 39.97341 0 71.273277 24.642237 71.273277 56.214302v5.727445h49.040926c36.367279 0 65.963341 30.030967 65.963341 66.903759V691.374576c0.002047 36.959773-29.594015 66.99074-65.961294 66.99074z m30.29191-619.798145c0-17.279548-13.613042-31.311123-30.29191-31.311123h-84.712357v-41.407062c0-9.758248-15.231913-20.542872-35.687804-20.542872-20.367887 0-35.68985 10.863419-35.68985 20.542872v41.320081H323.876923v-41.320081c0-9.758248-15.232936-20.542872-35.688827-20.542872s-35.671431 10.863419-35.67143 20.542872v41.320081h-84.729754c-16.695241 0-30.29191 14.031575-30.29191 31.311123v149.648299l0.260943 69.131497c1.11438 59.033511 49.963948 107.039875 108.841918 107.039875h147.611919V691.374576c0 17.279548 13.614066 31.311123 30.29191 31.311123h431.450452c16.676821 0 30.29191-14.031575 30.291911-31.311123v-552.807405h0.084934z"  horiz-adv-x="1024" />

    
    <glyph glyph-name="cuowu" unicode="&#59027;" d="M512.54798 831.533756c-246.578931 0-446.471564-199.894679-446.471564-446.475657 0-246.578931 199.890586-446.471564 446.471564-446.471565s446.472588 199.891609 446.472588 446.471565S759.126912 831.533756 512.54798 831.533756z m0-829.207525c-211.378222 0-382.730844 171.357739-382.730844 382.731868 0 211.380268 171.352623 382.732891 382.730844 382.732891 211.375152 0 382.732891-171.352623 382.732892-382.732891-0.001023-211.374128-171.356716-382.731868-382.732892-382.731868zM717.390345 232.517937L564.84916 385.059122l152.541185 152.541185-52.300156 52.30118-152.542209-152.542209-152.542208 152.543232-52.300156-52.30118 152.542208-152.542208L307.705616 232.51589l52.300156-52.300156L512.54798 332.758965l152.541186-152.541185 52.301179 52.300157z"  horiz-adv-x="1024" />

    
    <glyph glyph-name="fanhui1" unicode="&#59062;" d="M512-64C264.57728-64 64 136.58112 64 384.00384 64 631.42656 264.57728 832 512 832c247.42656 0 448-200.57344 448-447.99744C960 136.57984 759.42656-64 512-64z m0 840.00384c-216.4928 0-392-175.50336-392-392 0-216.49536 175.5072-391.99616 392-391.99616 216.50048 0 392 175.5008 392 391.99616S728.50048 776.00384 512 776.00384z m196-420H411.59936l115.39456-115.39712c10.93888-10.93632 10.93888-28.66432 0-39.59936-10.93504-10.93504-28.66432-10.93504-39.59808 0l-158.3872 158.3936c-6.71232 6.71616-8.79744 15.90656-7.27296 24.60288-1.5232 8.68736 0.56064 17.88288 7.27296 24.59904l158.38592 158.39744c10.93504 10.93504 28.66432 10.93504 39.59808 0 10.93888-10.9312 10.93888-28.66432 0-39.59936l-115.39328-115.39712h296.40064c15.4688 0 28.00128-12.53504 28.00128-28 0-15.46368-12.53376-28-28.00128-28z"  horiz-adv-x="1024" />

    
    <glyph glyph-name="chenggong" unicode="&#58968;" d="M512 832C264.966 832 64 631.027 64 384c0-247.028 200.966-448 448-448 247.028 0 448 200.973 448 448S759.02 832 512 832z m-40.671-679.027A1088651.4 1088651.4 0 0 1 232.68 379.147c23.9 16.159 41.926 28.344 61.832 41.829a458514.13 458514.13 0 0 1 137.363-109.29c94.178 123.663 220.702 209.141 341.936 303.333l17.502-23.34C647.609 469.568 552.91 312.881 471.329 152.973z"  horiz-adv-x="1024" />

    
    <glyph glyph-name="gerenziliao" unicode="&#58898;" d="M556.032 528.896c0 134.656-100.352 243.712-223.744 243.712S109.056 663.552 109.056 528.896c0-97.792 53.248-181.76 129.536-220.672v-53.248h188.416v53.248c76.288 38.912 129.024 122.88 129.024 220.672zM650.752-41.472c1.536 12.288 2.56 25.088 2.56 37.888 0 168.448-143.36 304.64-320.512 304.64S11.776 164.864 11.776-3.584c0-12.8 1.024-25.088 2.56-37.888h636.416zM913.408 809.472h-392.704v-43.52h392.704c32.256 0 54.784-17.408 54.784-33.28v-696.32c0-15.872-22.528-33.28-54.784-33.28h-221.696v-43.52h221.696c55.296 0 98.304 33.792 98.304 77.312V732.16c0.512 43.008-43.008 77.312-98.304 77.312zM909.312 593.408c0-8.704-6.656-15.872-14.336-15.872h-300.544c-8.192 0-14.336 7.168-14.336 15.872v45.568c0 8.704 6.656 15.872 14.336 15.872h300.544c8.192 0 14.336-7.168 14.336-15.872v-45.568zM909.312 435.2c0-8.704-6.656-15.872-14.336-15.872h-300.544c-8.192 0-14.336 7.168-14.336 15.872v45.568c0 8.704 6.656 15.872 14.336 15.872h300.544c8.192 0 14.336-7.168 14.336-15.872V435.2zM909.312 276.992c0-8.704-5.12-15.872-11.264-15.872H665.6c-6.144 0-11.264 7.168-11.264 15.872V322.56c0 8.704 5.12 15.872 11.264 15.872h232.448c6.144 0 11.264-7.168 11.264-15.872v-45.568z"  horiz-adv-x="1024" />

    
    <glyph glyph-name="upload-demo" unicode="&#59032;" d="M512 501.3c59.4 0 107.7 48.3 107.7 107.7 0 59.4-48.3 107.7-107.7 107.7S404.3 668.4 404.3 609c0-59.4 48.3-107.7 107.7-107.7z m0 164.2c31.2 0 56.5-25.3 56.5-56.5s-25.3-56.5-56.5-56.5-56.5 25.3-56.5 56.5 25.3 56.5 56.5 56.5zM619.7 158.1c0 59.4-48.3 107.7-107.7 107.7-59.4 0-107.7-48.3-107.7-107.7 0-59.4 48.3-107.7 107.7-107.7 59.4 0 107.7 48.3 107.7 107.7z m-164.2 0c0 31.2 25.3 56.5 56.5 56.5s56.5-25.3 56.5-56.5-25.3-56.5-56.5-56.5-56.5 25.3-56.5 56.5zM736.9 278.1c59.4 0 107.7 48.3 107.7 107.7 0 59.4-48.3 107.7-107.7 107.7-59.4 0-107.7-48.3-107.7-107.7 0.1-59.4 48.4-107.7 107.7-107.7z m0 164.1c31.2 0 56.5-25.3 56.5-56.5s-25.3-56.5-56.5-56.5-56.5 25.3-56.5 56.5 25.4 56.5 56.5 56.5zM286.1 489c-59.4 0-107.7-48.3-107.7-107.7 0-59.4 48.3-107.7 107.7-107.7 59.4 0 107.7 48.3 107.7 107.7 0 59.4-48.3 107.7-107.7 107.7z m0-164.2c-31.2 0-56.5 25.3-56.5 56.5s25.3 56.5 56.5 56.5 56.5-25.3 56.5-56.5-25.4-56.5-56.5-56.5zM949.5-36.8H726c44.2 22.5 84.3 51.6 119.7 87.1 43.3 43.3 77.4 93.8 101.1 150 24.6 58.2 37.1 120 37.1 183.7 0 63.7-12.5 125.5-37.1 183.7-23.8 56.2-57.8 106.7-101.1 150s-93.8 77.4-150 101.1C637.5 843.5 575.7 856 512 856c-63.7 0-125.5-12.5-183.7-37.1-56.2-23.8-106.7-57.8-150-101.1s-77.4-93.8-101.1-150C52.5 509.5 40 447.7 40 384c0-63.7 12.5-125.5 37.1-183.7 23.8-56.2 57.8-106.7 101.1-150s93.8-77.4 150-101.1c58.2-24.6 120-37.1 183.7-37.1 2.4 0 4.8 0 7.3 0.1 0.6 0 1.1-0.1 1.7-0.1h428.5c14.1 0 25.6 11.5 25.6 25.6s-11.4 25.5-25.5 25.5zM214.4 86.4c-38.7 38.7-69 83.7-90.2 133.8-21.9 51.9-33.1 107-33.1 163.8 0 56.8 11.1 111.9 33.1 163.8 21.2 50.1 51.5 95.1 90.2 133.8 38.7 38.7 83.7 69 133.8 90.2 51.9 21.9 107 33.1 163.8 33.1s111.9-11.1 163.8-33.1c50.1-21.2 95.1-51.5 133.8-90.2 38.7-38.7 69-83.7 90.2-133.8 21.9-51.9 33.1-107 33.1-163.8 0-56.8-11.1-111.9-33.1-163.8-21.2-50.1-51.5-95.1-90.2-133.8-38.7-38.7-83.7-69-133.8-90.2-51.9-21.9-107-33.1-163.8-33.1-56.8 0-111.9 11.1-163.8 33.1-50.1 21.2-95.1 51.6-133.8 90.2z"  horiz-adv-x="1024" />

    
    <glyph glyph-name="shoujihao" unicode="&#58900;" d="M774.464 860.4159999999999H249.472c-42.944 0-77.824-34.816-77.824-77.76v-797.248c0-42.944 34.816-77.76 77.824-77.76H774.4c43.008 0 77.888 34.816 77.888 77.76V782.656c0 42.88-34.88 77.76-77.824 77.76z m19.456-816.64c0-43.008-34.816-77.824-77.824-77.824H307.84a77.76 77.76 0 0 0-77.76 77.824V724.288c0 42.944 34.816 77.76 77.76 77.76h408.32c43.008 0 77.824-34.816 77.824-77.76v-680.512zM803.648 724.288H239.744a29.184 29.184 0 1 1 0-58.432h563.904a29.248 29.248 0 0 1 0 58.432zM803.648 199.23199999999997H239.744a29.12 29.12 0 1 1 0-58.304h563.904a29.184 29.184 0 1 1 0 58.304zM502.272 63.168000000000006m-38.912 0a38.912 38.912 0 1 1 77.824 0 38.912 38.912 0 1 1-77.824 0Z"  horiz-adv-x="1024" />

    
    <glyph glyph-name="sousuo" unicode="&#58906;" d="M498.773333 117.33333300000004a290.133333 290.133333 0 1 0 289.706667 290.133334 290.133333 290.133333 0 0 0-289.706667-290.133334z m0 537.173334a247.466667 247.466667 0 1 1 247.04-247.04 247.466667 247.466667 0 0 1-247.04 247.04zM788.053333 88.746667a21.333333 21.333333 0 0 0-14.933333 6.4l-103.253333 103.253333a21.333333 21.333333 0 1 0 30.293333 30.293333l103.253333-103.253333a21.333333 21.333333 0 0 0-14.933333-36.266667zM341.333333 448.426667a21.333333 21.333333 0 0 0-20.053333 29.013333A193.28 193.28 0 0 0 426.666667 586.666667a21.333333 21.333333 0 0 0 15.786666-39.68 150.613333 150.613333 0 0 1-85.333333-85.333334 21.333333 21.333333 0 0 0-15.786667-13.226666z"  horiz-adv-x="1024" />

    
    <glyph glyph-name="shouye" unicode="&#58883;" d="M761.6-32.799999999999955H646.7c-11.6 0-21 9.4-21 21V302.5c0 11.4-14 18.4-26.9 18.4H429.3c-11.2 0-26.9-5.7-26.9-18.4v-314.3c0-11.6-9.4-21-21-21H266.5c-60.3 0-109.4 49.1-109.4 109.4V364c0 11.6 9.4 21 21 21s21-9.4 21-21v-287.4c0-37.2 30.2-67.4 67.4-67.4h93.9V302.5c0 33.9 30.3 60.4 68.9 60.4h169.5c38.6 0 68.9-26.5 68.9-60.4v-293.3h93.9c37.2 0 67.4 30.2 67.4 67.4V364c0 11.6 9.4 21 21 21s21-9.4 21-21v-287.4c0-60.3-49-109.4-109.4-109.4zM976 353.1c-5.4 0-10.7 2.1-14.8 6.2L553.9 766.6c-26.3 26.3-69.1 26.3-95.4 0L66.9 374.9c-8.2-8.2-21.5-8.2-29.7 0s-8.2 21.5 0 29.7L428.8 796.3c42.7 42.6 112.1 42.7 154.7 0L990.9 389c8.2-8.2 8.2-21.5 0-29.7-4.1-4.1-9.5-6.2-14.9-6.2z"  horiz-adv-x="1024" />

    
    <glyph glyph-name="kefuliuyan" unicode="&#59097;" d="M120.576 516.608c36.096-12.032 72.192-48.128 72.192-84.224v-204.8c0-48.128-48.128-96.256-96.256-96.256C48.128 131.072 0 179.2 0 227.328v204.8c0 36.096 24.064 60.16 48.128 84.224 24.064 72.192 60.16 144.64 120.576 204.8 84.224 96.256 204.8 144.64 337.408 144.64 132.608 0 252.928-48.128 349.44-144.64 60.16-60.16 96.256-132.608 120.576-204.8 24.064-24.064 48.128-48.128 48.128-84.224v-204.8c0-48.128-36.096-84.224-84.224-96.256-12.032-24.064-60.16-180.736-313.344-192.768-12.032-24.064-36.096-36.096-84.224-36.096s-84.224 24.064-84.224 60.16c0 24.064 36.096 48.128 84.224 48.128 36.096 0 72.192-12.032 84.224-36.096 216.832 12.032 264.96 132.608 276.992 168.704-48.128 12.032-72.192 36.096-72.192 84.224v204.8c0 36.096 24.064 72.192 72.192 84.224-24.064 60.16-60.16 120.576-96.256 156.672-84.48 72.448-180.992 120.576-301.568 120.576-108.544 0-204.8-48.128-289.024-120.576-36.096-36.096-72.192-96.256-96.256-156.416z m0 0"  horiz-adv-x="1024" />

    
    <glyph glyph-name="wankeiconzhizuomoban-" unicode="&#58948;" d="M206.46 732.33v-679.8h153.9v-2.1h30v649.8h-30v-617.7h-123.9v619.8h329.1v-166.92l64.39 42.93 68.21-68.21v192.2h72.6v-619.8H503.61v-30h297.14v679.8z m461.7-149.79l-34.39 34.39-38.21-25.47v93.77h72.6z"  horiz-adv-x="1024" />

    
    <glyph glyph-name="tishi" unicode="&#58914;" d="M360.964058 197.509934h298.384106c0 13.562914 0 27.125828 6.781456 40.688741 0 33.907285 20.344371 61.033113 47.470199 81.377484 47.470199 40.688742 88.15894 81.377483 108.503311 135.629139 27.125828 81.377483 20.344371 155.97351-20.34437 230.569536-6.781457 6.781457-6.781457 13.562914-6.781457 20.344371 0 13.562914 13.562914 27.125828 27.125827 27.125828s33.907285-6.781457 40.688742-13.562914c20.344371-33.907285 40.688742-74.596026 47.470199-115.284768 20.344371-122.066225-20.344371-230.569536-128.847682-318.728477-6.781457-6.781457-13.562914-13.562914-27.125828-20.344371-20.344371-13.562914-27.125828-33.907285-20.344371-61.033112v-101.721855c0-54.251656-47.470199-94.940397-108.503311-94.940397H401.652799c-61.033113 0-108.503311 40.688742-108.503311 94.940397v67.81457 47.470199c0 20.344371-13.562914 40.688742-33.907285 54.251655-61.033113 47.470199-108.503311 101.721854-135.629139 176.317881C55.798495 645.086093 198.209091 848.529801 428.778627 889.218543 523.719024 902.781457 618.659422 896 706.818362 855.311258c27.125828-13.562914 27.125828-40.688742 6.781457-61.033112-13.562914-6.781457-27.125828-6.781457-40.688742 0-33.907285 20.344371-67.81457 27.125828-108.503311 33.907284-115.284768 13.562914-217.006623-13.562914-298.384106-88.15894-67.81457-61.033113-94.940397-135.629139-88.15894-217.006622 6.781457-81.377483 47.470199-142.410596 115.284768-196.662252 40.688742-27.125828 67.81457-67.81457 67.81457-115.284768v-13.562914z m0-61.033113v-33.907285c0-13.562914 20.344371-27.125828 33.907284-27.125827h223.78808c13.562914 0 27.125828 6.781457 33.907285 20.34437v40.688742H360.964058zM510.156111-121.218543H401.652799c-20.344371 0-33.907285 6.781457-33.907284 20.344371-6.781457 13.562914 0 27.125828 13.562913 33.907285 6.781457 0 13.562914 6.781457 20.344371 6.781457h223.78808c20.344371 0 33.907285-13.562914 33.907285-33.907285s-13.562914-33.907285-33.907285-33.907285C584.752137-121.218543 544.063395-121.218543 510.156111-121.218543z"  horiz-adv-x="1024" />

    
    <glyph glyph-name="tips" unicode="&#58940;" d="M817.866125 422.82630075h114.90399509v-76.60595517H817.866125v76.60595517m-727.74011398 0h114.90317194v-76.60595517H90.12601102v76.60595517M549.75186587 805.84537811v-114.90399508h-76.60760064V805.84537811h76.60760064m-309.48394372-95.75332965l81.58657682-81.96837122-54.38858232-54.00596392-81.58657681 81.20066583 54.38858231 54.77366931m460.77371081-81.58739914l81.20066584 81.58657682 54.77366931-54.77366931-81.58575366-81.20066666-54.38858149 54.38775915M511.44559692 614.33378238c126.92314874 0 229.81292743-102.88895636 229.81292744-229.80716785 0-85.03343234-46.34454583-159.33956314-114.90481824-199.17548245v-68.93959983c0-21.15509243-17.14788473-38.30626895-38.3013317-38.30626894H434.84293354c-21.15344695 0-38.3013317 17.15117651-38.30133171 38.30626894V185.35195440999996c-68.55944925 39.83509616-114.90399509 114.1420501-114.90399508 199.17548327 0 126.91738916 102.88977869 229.8063447 229.80799017 229.8063447m76.60760065-574.52985077v-38.30050854c0-21.15426929-17.14788473-38.3013317-38.3013317-38.3013317h-76.60760064c-21.15344695 0-38.3013317 17.14706241-38.3013317 38.3013317v38.30050854h153.21026404m-114.90893234 114.90975549h76.60760064v81.58163874c66.26209351 16.85248736 114.90399509 76.98857355 114.90399509 148.23128869 0 84.61049524-68.5940084 153.20450446-153.20944089 153.20450446-84.61131839 0-153.20450446-68.5940084-153.20450445-153.20450446 0-71.24271516 48.64107844-131.37880133 114.90399508-148.23128869v-81.58163874z m0 0"  horiz-adv-x="1024" />

    
    <glyph glyph-name="tui" unicode="&#58924;" d="M831.34464 690.61632c93.00992-98.16576 135.53664-230.12352 120.3968-364.21632-12.75904-113.03424-74.56768-216.3712-161.18784-288.36864-183.59808-152.61696-460.8512-120.09984-615.65952 55.76192C38.88128 248.2944 35.62496 481.50016 153.93792 646.3232c131.89632 183.74656 390.61504 230.85056 583.65952 118.66112 28.60544-16.62464 54.36416 27.63264 25.84064 44.2112C542.07488 937.84064 260.87936 876.53888 109.72672 672.16384c-140.20096-189.57312-116.15232-459.25888 42.39872-629.42208 160.21504-171.94496 429.34784-201.3952 626.21696-76.416 208.61952 132.43904 282.14272 403.5584 181.41184 626.432-22.4256 49.60768-54.86592 94.64832-92.2112 134.06208-22.74304 24.0128-58.89024-12.25728-36.1984-36.20352zM769.93536 182.72768c17.03936-1.52576 26.3424-10.06592 27.89888-25.5744-1.5616-13.952-10.85952-21.68832-27.89888-23.24992H495.58016c-62.00832 3.1232-115.48672 21.72416-160.42496 55.79776-3.1232-1.5616-7.77728-4.64896-13.952-9.29792-23.24992-18.60096-44.17536-32.54784-62.77632-41.85088-13.952-4.64896-24.04864-0.76288-30.22336 11.62752-6.21056 17.0752-3.1232 28.6976 9.29792 34.87744 46.49984 17.03936 70.51264 41.05216 72.07424 72.07424v125.51168c0 17.03936-6.97344 25.5744-20.92544 25.5744h-46.49984c-12.42624 0-19.39968 7.74144-20.92544 23.24992 1.52576 15.47264 8.4992 23.24992 20.92544 23.24992h74.39872c26.3424 0 39.5264-12.42624 39.5264-37.20192V273.408c4.64896-57.35936 48.82432-87.552 132.52608-90.6752h281.33376zM370.03264 543.06304c9.29792-13.952 7.74144-25.5744-4.64896-34.87744-12.42624-7.77728-24.04864-4.64896-34.87744 9.29792a1158.62528 1158.62528 0 0 1-69.74976 81.37728c-10.85952 12.3904-11.62752 24.0128-2.32448 34.87744 12.3904 7.73632 24.77568 6.17472 37.20192-4.64896 21.68832-20.15744 46.49984-48.82432 74.39872-86.02624z m369.67936-83.69664c-1.5616-23.24992-14.75072-35.67616-39.5264-37.20192H463.03232v-165.03296c0-4.64896 2.32448-6.21056 6.97344-4.64896 27.89888 15.47264 51.15392 30.99136 69.75488 46.49984 15.47264 10.82368 27.89888 10.06592 37.20192-2.32448 9.29792-12.42624 6.97344-24.81152-6.97344-37.20192a494.976 494.976 0 0 0-99.97824-58.12736c-37.20192-13.952-55.79776-3.1232-55.79776 32.54784V610.48832c-3.1232 29.42464 11.62752 43.37664 44.17536 41.85088h237.15328c30.99136 3.08736 45.70112-10.10176 44.17536-39.5264v-153.4464zM460.70784 561.664h232.50432v25.5744c1.52576 15.47264-3.88608 22.4512-16.27648 20.92544H479.3088c-12.42624 0-18.60096-6.97344-18.60096-20.92544V561.664z m216.22784-95.32416c10.82368 0 16.27648 5.41696 16.27648 16.27648v34.87744H460.70784v-51.1488h216.22784z m-65.1008-104.59136c10.82368-7.77216 18.60096-13.94688 23.24992-18.59584 21.68832 13.952 44.93824 33.28512 69.74976 58.0864 10.82368 10.82368 22.4512 11.62752 34.87744 2.32448 10.82368-12.42624 10.82368-24.8064 0-37.17632-13.952-13.93664-36.43392-32.53248-67.42528-55.78752 27.89888-24.81152 51.1488-48.82432 69.74976-72.07424 10.82368-15.50848 10.82368-27.89888 0-37.20192-12.42624-7.77728-24.81152-5.44768-37.20192 6.97344-52.7104 60.45184-113.16224 112.36352-181.3504 155.76576-10.86464 9.28256-11.62752 20.096-2.32448 32.52224 9.29792 12.3904 20.12672 14.71488 32.54784 6.97344 13.952-9.2928 33.31584-23.2448 58.12736-41.80992z"  horiz-adv-x="1024" />

    
    <glyph glyph-name="fanhui2" unicode="&#58887;" d="M500.736 785.966545l-31.976727 33.885091L7.307636 384l461.451637-435.851636 31.976727 33.885091L75.077818 384z"  horiz-adv-x="1024" />

    
    <glyph glyph-name="chenggong1" unicode="&#58959;" d="M512-128C229.2224-128 0 101.2224 0 384S229.2224 896 512 896s512-229.2224 512-512-229.2224-512-512-512z m214.3232 685.2096l-292.5056-274.176-126.1568 120.2176a51.2 51.2 0 1 1-70.656-74.0864l161.1776-153.6512a51.2 51.2 0 0 1 70.3488-0.3072l327.7824 307.3024a51.2 51.2 0 1 1-69.9904 74.7008z"  horiz-adv-x="1024" />

    
    <glyph glyph-name="daifukuan" unicode="&#58881;" d="M60.235294 655.058824v-722.82353h903.529412V655.058824H60.235294z m0 60.235294h903.529412a60.235294 60.235294 0 0 0 60.235294-60.235294v-722.82353a60.235294 60.235294 0 0 0-60.235294-60.235294H60.235294a60.235294 60.235294 0 0 0-60.235294 60.235294V655.058824a60.235294 60.235294 0 0 0 60.235294 60.235294z m903.529412-331.294118h-180.705882v-180.705882h180.705882v180.705882z m-180.705882 60.235294h240.941176v-301.17647h-240.941176a60.235294 60.235294 0 0 0-60.235295 60.235294v180.705882a60.235294 60.235294 0 0 0 60.235295 60.235294z m-60.235295 271.058824V826.88L295.002353 715.294118H722.823529z m-670.177882-0.993883l692.705882 180.705883A30.117647 30.117647 0 0 0 783.058824 865.882353v-180.705882a30.117647 30.117647 0 0 0-30.117648-30.117647H60.235294C24.907294 655.058824 18.432 705.415529 52.645647 714.330353z"  horiz-adv-x="1024" />

    
    <glyph glyph-name="fenqi-wo-daifahuo" unicode="&#58888;" d="M921.6 588.8h51.2c28.28 0 51.2 22.925 51.2 51.2V844.8c0 28.277-22.92 51.2-51.2 51.2H51.2C22.923 896 0 873.077 0 844.8V640c0-28.275 22.923-51.2 51.2-51.2h51.197v-511.91c0-28.274 22.923-51.2 51.2-51.2h467.231a1.476 1.476 0 0 1-0.035 0.146C643.449-62.615 723.685-128 819.2-128c113.11 0 204.8 91.689 204.8 204.8 0 75.8-41.21 141.935-102.42 177.345 0.005-0.005 0.015-0.005 0.02-0.01V588.8zM51.197 691.2V793.6c0 28.275 22.926 51.2 51.2 51.2H921.6c28.275 0 51.2-22.925 51.2-51.2v-102.4c0-28.275-22.925-51.2-51.2-51.2h-49.37c-0.609 0.022-1.21 0.092-1.829 0.092H153.598c-0.617 0-1.217-0.07-1.832-0.092h-49.368c-28.275 0-51.201 22.925-51.201 51.2z m102.399-569.695V531.1c0 28.28 22.922 51.2 51.2 51.2H819.2c28.274 0 51.2-22.92 51.2-51.2v-255.95c0.064-0.016 0.13-0.041 0.194-0.061-16.425 4.245-33.645 6.51-51.395 6.51-113.11 0-204.801-91.689-204.801-204.8 0-2.18 0.095-4.335 0.165-6.495H204.796c-28.278 0.001-51.2 22.921-51.2 51.201z m464.553-83.68c0.1-0.511 0.17-1.03 0.274-1.54-0.099 0.51-0.179 1.029-0.274 1.54z m-1.714 10.335c0.035-0.245 0.06-0.495 0.095-0.74-0.036 0.245-0.06 0.495-0.095 0.74zM972.8 76.8c0-84.83-68.77-153.6-153.6-153.6-84.831 0-153.601 68.77-153.601 153.6s68.77 153.6 153.601 153.6c84.83 0 153.6-68.77 153.6-153.6z m-76.585 189.77c0.3-0.12 0.605-0.23 0.9-0.355-0.295 0.125-0.6 0.235-0.9 0.355z m-13.62 4.98c0.945-0.31 1.875-0.63 2.811-0.95-0.936 0.32-1.866 0.645-2.811 0.95zM819.2 216.32c14.14 0 25.6-11.461 25.6-25.601v-76.8H896c14.14 0 25.6-11.46 25.6-25.6 0-14.141-11.46-25.601-25.6-25.601h-76.8c-14.141 0-25.601 11.46-25.601 25.601V190.72c0.001 14.139 11.461 25.6 25.601 25.6z"  horiz-adv-x="1024" />

    
    <glyph glyph-name="shibai" unicode="&#58930;" d="M817.6 68.8c-14.4 0-27.2 8-35.2 20.8-54.4 97.6-158.4 158.4-270.4 158.4s-216-60.8-270.4-158.4c-11.2-19.2-35.2-25.6-54.4-16-19.2 11.2-25.6 35.2-16 54.4 68.8 123.2 198.4 200 339.2 200s272-76.8 340.8-200c11.2-19.2 3.2-43.2-16-54.4-4.8-3.2-11.2-4.8-17.6-4.8zM243.2 627.2m-70.4 0a70.4 70.4 0 1 1 140.8 0 70.4 70.4 0 1 1-140.8 0ZM780.8 627.2m-70.4 0a70.4 70.4 0 1 1 140.8 0 70.4 70.4 0 1 1-140.8 0Z"  horiz-adv-x="1024" />

    
    <glyph glyph-name="xiugaibangdingshouji" unicode="&#59839;" d="M739.1-93.8H281.9c-60.7 0-110 49.3-110 110V751.8c0 60.7 49.3 110 110 110h457.3c60.7 0 110-49.3 110-110v-735.5c-0.1-60.7-49.4-110.1-110.1-110.1zM281.9 801.8c-27.6 0-50-22.4-50-50v-735.5c0-27.6 22.4-50 50-50h457.3c27.6 0 50 22.4 50 50V751.8c0 27.6-22.4 50-50 50H281.9zM204.9 159h617.3v-60H204.9zM201.9 733.6h617.3v-60H201.9zM510.5 33.4m-37.4 0a37.4 37.4 0 1 1 74.8 0 37.4 37.4 0 1 1-74.8 0Z"  horiz-adv-x="1024" />

    
    <glyph glyph-name="yue" unicode="&#59077;" d="M463.714702 311.182222H376.902258v-39.139555h104.675555v-53.930667h-104.675555v-39.651556h104.675555V99.555556H542.221369v78.904888h100.579555v39.651556H542.505813v53.873778h100.522667v39.196444H559.003591L654.29248 440.888889H589.723591l-39.480889-61.212445c-13.084444-18.773333-25.031111-38.456889-35.612444-58.709333h-1.251556c-12.856889 23.608889-15.701333 31.857778-75.093333 119.921778H369.848036l93.866666-129.706667zM860.742258 497.777778a1261.624889 1261.624889 0 0 1-49.208889 47.672889c-43.576889 40.675556-84.764444 79.189333-88.405333 112.071111 4.152889 8.248889 23.324444 28.444444 36.295111 42.382222 45.340444 48.071111 96.768 102.4 52.679111 139.832889-19.683556 16.611556-57.514667 40.277333-124.131556 55.751111a26.282667 26.282667 0 0 1-30.606222-20.195556 26.908444 26.908444 0 0 1 18.545778-32.028444c49.493333-12.174222 76.629333-28.956444 89.543111-39.253333-1.991111-14.620444-37.660444-52.565333-55.182222-71.111111-33.735111-35.726222-51.313778-55.352889-50.119111-75.662223 3.015111-52.337778 52.451556-98.417778 104.675555-147.342222 15.928889-14.848 32.426667-30.208 47.160889-45.511111 91.704889-95.232 122.88-185.685333 120.661333-276.48-1.592889-65.024-6.485333-262.826667-424.106666-262.826667-272.497778 0-412.842667 87.893333-417.052445 261.290667-2.503111 89.088 30.151111 180.110222 124.416 277.902222 17.635556 18.204444 38.968889 36.579556 59.505778 54.328889 52.337778 45.056 101.831111 87.608889 106.211556 137.898667 1.877333 20.650667-16.042667 40.618667-50.346667 77.027555-17.408 18.375111-52.622222 55.751111-54.954667 70.314667A209.123556 209.123556 0 0 0 348.685369 839.111111a27.079111 27.079111 0 0 1 17.294222 32.540445 26.339556 26.339556 0 0 1-30.72 19.512888c-43.235556-11.832889-78.449778-28.956444-105.472-51.2-44.544-36.864 6.826667-91.022222 52.167111-139.207111 13.027556-13.767111 32.256-34.133333 36.636445-42.666666-4.835556-30.378667-47.217778-66.844444-88.177778-102.4-21.447111-18.602667-43.804444-37.774222-63.488-57.856C63.103147 389.688889 26.06848 287.288889 28.685369 184.888889 35.341369-87.608889 332.130702-128 508.486258-128c317.952 0 481.735111 105.870222 486.968889 314.709333 2.503111 103.822222-33.223111 205.653333-134.826667 311.125334z"  horiz-adv-x="1024" />

    
    <glyph glyph-name="yanzhengma" unicode="&#58884;" d="M513.807-128c-162.635 0-455.379 254.193-459.595 504.17V662.2860000000001a93.365 93.365 0 0 0 81.317 88.546 570.428 570.428 0 0 1 163.238 40.358 393.336 393.336 0 0 1 148.179 81.317 101.798 101.798 0 0 0 120.47 5.421A629.459 629.459 0 0 1 716.8 792.395a1255.304 1255.304 0 0 1 169.864-38.55 98.786 98.786 0 0 0 79.51-90.956 2911.172 2911.172 0 0 0-3.012-291.538C924.612 49.09000000000003 672.828-128 513.807-128z m0 963.765a39.153 39.153 0 0 1-24.696-7.83 438.513 438.513 0 0 0-169.864-93.366A608.376 608.376 0 0 0 138.541 691.2a33.732 33.732 0 0 1-24.094-30.118v-283.708c4.217-222.268 275.275-445.139 399.36-445.139s354.184 148.18 391.53 444.537c9.035 175.887 0 281.9 0 283.106a38.55 38.55 0 0 1-29.516 33.731 1287.83 1287.83 0 0 0-180.706 41.563 676.442 676.442 0 0 0-159.02 94.57A37.346 37.346 0 0 1 512 835.764zM784.866 479.172l-296.96-280.697a40.358 40.358 0 0 0-49.393-4.819l-7.83 6.626-161.431 171.069a40.358 40.358 0 1 0 60.235 55.416L463.21 285.21400000000006l267.445 252.988a40.358 40.358 0 1 0 55.417-60.235"  horiz-adv-x="1024" />

    
    <glyph glyph-name="shouhuodizhi" unicode="&#59154;" d="M495.4 597.3c-92.7 0-168.1-75.4-168.1-168.1s75.4-168.1 168.1-168.1 168.1 75.4 168.1 168.1-75.4 168.1-168.1 168.1z m0-276.1c-59.6 0-108.1 48.5-108.1 108.1s48.5 108.1 108.1 108.1c59.6 0 108.1-48.5 108.1-108.1S555 321.2 495.4 321.2z m347.9 255c-19 45-46.2 85.3-80.9 120s-75 61.9-120 80.9c-46.6 19.7-96 29.7-147 29.7s-100.4-10-147-29.7c-45-19-85.3-46.2-120-80.9s-61.9-75-80.9-120c-19.7-46.6-29.7-96-29.7-147 0-49.7 13.1-102.7 38.8-157.6 21.3-45.3 51.4-92.3 89.5-139.7C325.7 33 413.6-36 438.7-54.7c16.2-12.1 36.8-18.2 57.3-18.2 20.7 0 41.3 6.2 57.2 18.5 33.5 25.9 119.2 96.2 193.1 188.2C830.3 238.5 873 337.9 873 429.3c0 50.9-10 100.4-29.7 146.9zM516.4-6.9c-10.2-7.9-30.9-7.8-41.7 0.3-48.7 36.5-122.1 102-181.8 176.2-75.3 93.6-115.1 183.4-115.1 259.7 0 175.1 142.5 317.6 317.6 317.6S813 604.4 813 429.3c0-196.4-247.1-397.9-296.6-436.2z"  horiz-adv-x="1024" />

    


  </font>
</defs>
</svg>
